<?xml version="1.0" encoding="UTF-8" standalone="no"?>
<!DOCTYPE svg PUBLIC "-//W3C//DTD SVG 1.1//EN" "http://www.w3.org/Graphics/SVG/1.1/DTD/svg11.dtd">
<!-- Generated by graphviz version 5.0.0 (20220707.1540)
 -->
<!-- Title: UmlClassDiagram Pages: 1 -->
<svg width="4040pt" height="1104pt" viewBox="0.00 0.00 4040.00 1103.80" xmlns="http://www.w3.org/2000/svg" xmlns:xlink="http://www.w3.org/1999/xlink">
<g id="graph0" class="graph" transform="scale(1 1) rotate(0) translate(4 1099.8)">
<title>UmlClassDiagram</title>
<polygon fill="white" stroke="transparent" points="-4,4 -4,-1099.8 4036,-1099.8 4036,4 -4,4"/>
<g id="clust1" class="cluster">
<title>cluster_0</title>
<polygon fill="white" stroke="black" points="8,-477 8,-921.2 805,-921.2 805,-477 8,-477"/>
<text text-anchor="middle" x="406.5" y="-485.2" font-family="Times,serif" font-size="14.00">contracts/GovernanceToken</text>
</g>
<g id="clust2" class="cluster">
<title>cluster_1</title>
<polygon fill="white" stroke="black" points="849,-50 849,-427 1649,-427 1649,-50 849,-50"/>
<text text-anchor="middle" x="1249" y="-58.2" font-family="Times,serif" font-size="14.00">contracts/InternalMarket</text>
</g>
<g id="clust3" class="cluster">
<title>cluster_2</title>
<polygon fill="white" stroke="black" points="94,-929.2 94,-1087.8 662,-1087.8 662,-929.2 94,-929.2"/>
<text text-anchor="middle" x="378" y="-937.4" font-family="Times,serif" font-size="14.00">contracts/NeokingdomToken</text>
</g>
<g id="clust4" class="cluster">
<title>cluster_3</title>
<polygon fill="white" stroke="black" points="845,-628.2 845,-770 1317,-770 1317,-628.2 845,-628.2"/>
<text text-anchor="middle" x="1081" y="-636.4" font-family="Times,serif" font-size="14.00">contracts/PriceOracle</text>
</g>
<g id="clust5" class="cluster">
<title>cluster_4</title>
<polygon fill="white" stroke="black" points="1325,-577.8 1325,-820.4 1761,-820.4 1761,-577.8 1325,-577.8"/>
<text text-anchor="middle" x="1543" y="-586" font-family="Times,serif" font-size="14.00">contracts/RedemptionController</text>
</g>
<g id="clust6" class="cluster">
<title>cluster_5</title>
<polygon fill="white" stroke="black" points="3058,-33.2 3058,-443.8 4024,-443.8 4024,-33.2 3058,-33.2"/>
<text text-anchor="middle" x="3541" y="-41.4" font-family="Times,serif" font-size="14.00">contracts/ResolutionManager</text>
</g>
<g id="clust7" class="cluster">
<title>cluster_6</title>
<polygon fill="white" stroke="black" points="1769,-477 1769,-921.2 3067,-921.2 3067,-477 1769,-477"/>
<text text-anchor="middle" x="2418" y="-485.2" font-family="Times,serif" font-size="14.00">contracts/ShareholderRegistry</text>
</g>
<g id="clust8" class="cluster">
<title>cluster_7</title>
<polygon fill="white" stroke="black" points="2192,-8 2192,-469 3050,-469 3050,-8 2192,-8"/>
<text text-anchor="middle" x="2621" y="-16.2" font-family="Times,serif" font-size="14.00">contracts/Voting</text>
</g>
<g id="clust9" class="cluster">
<title>cluster_8</title>
<polygon fill="white" stroke="black" points="1882,-954.4 1882,-1062.6 2011,-1062.6 2011,-954.4 1882,-954.4"/>
<text text-anchor="middle" x="1946.5" y="-962.6" font-family="Times,serif" font-size="14.00">contracts/extensions</text>
</g>
<!-- 0 -->
<g id="node1" class="node">
<title>0</title>
<polygon fill="#f2f2f2" stroke="black" points="409.14,-510.3 409.14,-912.7 796.86,-912.7 796.86,-510.3 409.14,-510.3"/>
<text text-anchor="middle" x="603" y="-896.1" font-family="Times,serif" font-size="14.00">GovernanceToken</text>
<polyline fill="none" stroke="black" points="409.14,-887.9 796.86,-887.9 "/>
<text text-anchor="start" x="417.14" y="-871.3" font-family="Times,serif" font-size="14.00">External:</text>
<text text-anchor="start" x="417.14" y="-854.5" font-family="Times,serif" font-size="14.00">    setVoting(voting: IVoting)</text>
<text text-anchor="start" x="417.14" y="-837.7" font-family="Times,serif" font-size="14.00">    setTokenExternal(tokenExternalAddress: address)</text>
<text text-anchor="start" x="417.14" y="-820.9" font-family="Times,serif" font-size="14.00">    setRedemptionController(redemption: IRedemptionController)</text>
<text text-anchor="start" x="417.14" y="-804.1" font-family="Times,serif" font-size="14.00">Public:</text>
<text text-anchor="start" x="417.14" y="-787.3" font-family="Times,serif" font-size="14.00">    setRoles(roles: DAORoles)</text>
<text text-anchor="start" x="417.14" y="-770.5" font-family="Times,serif" font-size="14.00">    getRoles(): DAORoles</text>
<text text-anchor="start" x="417.14" y="-753.7" font-family="Times,serif" font-size="14.00">    snapshot(): uint256</text>
<text text-anchor="start" x="417.14" y="-736.9" font-family="Times,serif" font-size="14.00">    balanceOfAt(account: address, snapshotId: uint256): uint256</text>
<text text-anchor="start" x="417.14" y="-720.1" font-family="Times,serif" font-size="14.00">    totalSupplyAt(snapshotId: uint256): uint256</text>
<text text-anchor="start" x="417.14" y="-703.3" font-family="Times,serif" font-size="14.00">    mint(to: address, amount: uint256)</text>
<text text-anchor="start" x="417.14" y="-686.5" font-family="Times,serif" font-size="14.00">    burn(from: address, amount: uint256)</text>
<text text-anchor="start" x="417.14" y="-669.7" font-family="Times,serif" font-size="14.00">    wrap(from: address, amount: uint256)</text>
<text text-anchor="start" x="417.14" y="-652.9" font-family="Times,serif" font-size="14.00">    unwrap(from: address, to: address, amount: uint256)</text>
<text text-anchor="start" x="417.14" y="-636.1" font-family="Times,serif" font-size="14.00">    vestingBalanceOf(account: address): uint256</text>
<text text-anchor="start" x="417.14" y="-619.3" font-family="Times,serif" font-size="14.00">    getCurrentSnapshotId(): uint256</text>
<text text-anchor="start" x="417.14" y="-602.5" font-family="Times,serif" font-size="14.00">    initialize(roles: DAORoles, name: string, symbol: string)</text>
<text text-anchor="start" x="417.14" y="-585.7" font-family="Times,serif" font-size="14.00">    constructor()</text>
<text text-anchor="start" x="417.14" y="-568.9" font-family="Times,serif" font-size="14.00">    mintVesting(to: address, amount: uint256)</text>
<text text-anchor="start" x="417.14" y="-552.1" font-family="Times,serif" font-size="14.00">    setVesting(to: address, amount: uint256)</text>
<text text-anchor="start" x="417.14" y="-535.3" font-family="Times,serif" font-size="14.00">    transfer(to: address, amount: uint256): bool</text>
<text text-anchor="start" x="417.14" y="-518.5" font-family="Times,serif" font-size="14.00">    transferFrom(from: address, to: address, amount: uint256): bool</text>
</g>
<!-- 9 -->
<g id="node5" class="node">
<title>9</title>
<polygon fill="#f2f2f2" stroke="black" points="379.71,-962.5 379.71,-1079.3 654.29,-1079.3 654.29,-962.5 379.71,-962.5"/>
<text text-anchor="middle" x="517" y="-1062.7" font-family="Times,serif" font-size="14.00">&lt;&lt;Interface&gt;&gt;</text>
<text text-anchor="middle" x="517" y="-1045.9" font-family="Times,serif" font-size="14.00">INeokingdomToken</text>
<polyline fill="none" stroke="black" points="379.71,-1037.7 654.29,-1037.7 "/>
<text text-anchor="start" x="387.71" y="-1021.1" font-family="Times,serif" font-size="14.00">External:</text>
<text text-anchor="start" x="387.71" y="-1004.3" font-family="Times,serif" font-size="14.00">     mint(to: address, amount: uint256)</text>
<text text-anchor="start" x="387.71" y="-987.5" font-family="Times,serif" font-size="14.00">     burn(amount: uint256)</text>
<text text-anchor="start" x="387.71" y="-970.7" font-family="Times,serif" font-size="14.00">     burnFrom(from: address, amount: uint256)</text>
</g>
<!-- 0&#45;&gt;9 -->
<g id="edge2" class="edge">
<title>0-&gt;9</title>
<path fill="none" stroke="black" d="M546.96,-912.82C543.02,-926.89 539.25,-940.38 535.78,-952.76"/>
<polygon fill="black" stroke="black" points="532.4,-951.87 533.07,-962.44 539.14,-953.76 532.4,-951.87"/>
</g>
<!-- 37 -->
<g id="node15" class="node">
<title>37</title>
<polygon fill="#f2f2f2" stroke="black" points="1894.85,-987.7 1894.85,-1054.1 1997.15,-1054.1 1997.15,-987.7 1894.85,-987.7"/>
<text text-anchor="middle" x="1946" y="-1037.5" font-family="Times,serif" font-size="14.00">DAORoles</text>
<polyline fill="none" stroke="black" points="1894.85,-1029.3 1997.15,-1029.3 "/>
<text text-anchor="start" x="1902.85" y="-1012.7" font-family="Times,serif" font-size="14.00">Public:</text>
<text text-anchor="start" x="1902.85" y="-995.9" font-family="Times,serif" font-size="14.00">    constructor()</text>
</g>
<!-- 0&#45;&gt;37 -->
<g id="edge1" class="edge">
<title>0-&gt;37</title>
<path fill="none" stroke="black" d="M794.51,-912.79C799.94,-915.79 805.44,-918.6 811,-921.2 1004.2,-1011.43 1677.07,-1019.68 1884.58,-1020.04"/>
<polygon fill="black" stroke="black" points="1884.69,-1023.54 1894.69,-1020.05 1884.7,-1016.54 1884.69,-1023.54"/>
</g>
<!-- 1 -->
<g id="node2" class="node">
<title>1</title>
<polygon fill="#f2f2f2" stroke="black" points="16.38,-611.1 16.38,-811.9 391.62,-811.9 391.62,-611.1 16.38,-611.1"/>
<text text-anchor="middle" x="204" y="-795.3" font-family="Times,serif" font-size="14.00">GovernanceTokenBase</text>
<polyline fill="none" stroke="black" points="16.38,-787.1 391.62,-787.1 "/>
<text text-anchor="start" x="24.38" y="-770.5" font-family="Times,serif" font-size="14.00">External:</text>
<text text-anchor="start" x="24.38" y="-753.7" font-family="Times,serif" font-size="14.00">     snapshot(): uint256</text>
<text text-anchor="start" x="24.38" y="-736.9" font-family="Times,serif" font-size="14.00">     balanceOfAt(account: address, snapshotId: uint256): uint256</text>
<text text-anchor="start" x="24.38" y="-720.1" font-family="Times,serif" font-size="14.00">     totalSupplyAt(snapshotId: uint256): uint256</text>
<text text-anchor="start" x="24.38" y="-703.3" font-family="Times,serif" font-size="14.00">     mint(to: address, amount: uint256)</text>
<text text-anchor="start" x="24.38" y="-686.5" font-family="Times,serif" font-size="14.00">     burn(from: address, amount: uint256)</text>
<text text-anchor="start" x="24.38" y="-669.7" font-family="Times,serif" font-size="14.00">     wrap(from: address, amount: uint256)</text>
<text text-anchor="start" x="24.38" y="-652.9" font-family="Times,serif" font-size="14.00">     unwrap(from: address, to: address, amount: uint256)</text>
<text text-anchor="start" x="24.38" y="-636.1" font-family="Times,serif" font-size="14.00">Public:</text>
<text text-anchor="start" x="24.38" y="-619.3" font-family="Times,serif" font-size="14.00">    vestingBalanceOf(account: address): uint256</text>
</g>
<!-- 1&#45;&gt;9 -->
<g id="edge3" class="edge">
<title>1-&gt;9</title>
<path fill="none" stroke="black" d="M292.97,-811.92C325.75,-847.28 363.75,-886.83 400,-921.2 412.17,-932.74 425.45,-944.59 438.56,-955.89"/>
<polygon fill="black" stroke="black" points="436.37,-958.63 446.24,-962.48 440.93,-953.31 436.37,-958.63"/>
</g>
<!-- 5 -->
<g id="node3" class="node">
<title>5</title>
<polygon fill="#f2f2f2" stroke="black" points="857.4,-83.3 857.4,-418.5 1304.6,-418.5 1304.6,-83.3 857.4,-83.3"/>
<text text-anchor="middle" x="1081" y="-401.9" font-family="Times,serif" font-size="14.00">InternalMarket</text>
<polyline fill="none" stroke="black" points="857.4,-393.7 1304.6,-393.7 "/>
<text text-anchor="start" x="865.4" y="-377.1" font-family="Times,serif" font-size="14.00">Public:</text>
<text text-anchor="start" x="865.4" y="-360.3" font-family="Times,serif" font-size="14.00">    setRoles(roles: DAORoles)</text>
<text text-anchor="start" x="865.4" y="-343.5" font-family="Times,serif" font-size="14.00">    getRoles(): DAORoles</text>
<text text-anchor="start" x="865.4" y="-326.7" font-family="Times,serif" font-size="14.00">    offeredBalanceOf(account: address): uint256</text>
<text text-anchor="start" x="865.4" y="-309.9" font-family="Times,serif" font-size="14.00">    withdrawableBalanceOf(account: address): uint256</text>
<text text-anchor="start" x="865.4" y="-293.1" font-family="Times,serif" font-size="14.00">    initialize(roles: DAORoles, tokenInternal: IGovernanceToken)</text>
<text text-anchor="start" x="865.4" y="-276.3" font-family="Times,serif" font-size="14.00">    constructor()</text>
<text text-anchor="start" x="865.4" y="-259.5" font-family="Times,serif" font-size="14.00">    makeOffer(amount: uint256)</text>
<text text-anchor="start" x="865.4" y="-242.7" font-family="Times,serif" font-size="14.00">    matchOffer(account: address, amount: uint)</text>
<text text-anchor="start" x="865.4" y="-225.9" font-family="Times,serif" font-size="14.00">    withdraw(to: address, amount: uint)</text>
<text text-anchor="start" x="865.4" y="-209.1" font-family="Times,serif" font-size="14.00">    deposit(amount: uint)</text>
<text text-anchor="start" x="865.4" y="-192.3" font-family="Times,serif" font-size="14.00">    redeem(amount: uint)</text>
<text text-anchor="start" x="865.4" y="-175.5" font-family="Times,serif" font-size="14.00">    setInternalToken(token: IGovernanceToken)</text>
<text text-anchor="start" x="865.4" y="-158.7" font-family="Times,serif" font-size="14.00">    setShareholderRegistry(shareholderRegistry: IShareholderRegistry)</text>
<text text-anchor="start" x="865.4" y="-141.9" font-family="Times,serif" font-size="14.00">    setExchangePair(token: ERC20, oracle: IStdReference)</text>
<text text-anchor="start" x="865.4" y="-125.1" font-family="Times,serif" font-size="14.00">    setReserve(reserve_: address)</text>
<text text-anchor="start" x="865.4" y="-108.3" font-family="Times,serif" font-size="14.00">    setRedemptionController(redemptionController_: IRedemptionController)</text>
<text text-anchor="start" x="865.4" y="-91.5" font-family="Times,serif" font-size="14.00">    setOfferDuration(duration: uint)</text>
</g>
<!-- 11 -->
<g id="node7" class="node">
<title>11</title>
<polygon fill="#f2f2f2" stroke="black" points="853.36,-661.5 853.36,-761.5 1308.64,-761.5 1308.64,-661.5 853.36,-661.5"/>
<text text-anchor="middle" x="1081" y="-744.9" font-family="Times,serif" font-size="14.00">&lt;&lt;Interface&gt;&gt;</text>
<text text-anchor="middle" x="1081" y="-728.1" font-family="Times,serif" font-size="14.00">IStdReference</text>
<polyline fill="none" stroke="black" points="853.36,-719.9 1308.64,-719.9 "/>
<text text-anchor="start" x="861.36" y="-703.3" font-family="Times,serif" font-size="14.00">External:</text>
<text text-anchor="start" x="861.36" y="-686.5" font-family="Times,serif" font-size="14.00">     getReferenceData(_base: string, _quote: string): ReferenceData</text>
<text text-anchor="start" x="861.36" y="-669.7" font-family="Times,serif" font-size="14.00">     getReferenceDataBulk(_bases: string[], _quotes: string[]): ReferenceData[]</text>
</g>
<!-- 5&#45;&gt;11 -->
<g id="edge5" class="edge">
<title>5-&gt;11</title>
<path fill="none" stroke="black" d="M1081,-418.76C1081,-499.94 1081,-592.42 1081,-651.09"/>
<polygon fill="black" stroke="black" points="1077.5,-651.29 1081,-661.29 1084.5,-651.29 1077.5,-651.29"/>
</g>
<!-- 24 -->
<g id="node10" class="node">
<title>24</title>
<polygon fill="#f2f2f2" stroke="black" points="2615.34,-577.5 2615.34,-845.5 3058.66,-845.5 3058.66,-577.5 2615.34,-577.5"/>
<text text-anchor="middle" x="2837" y="-828.9" font-family="Times,serif" font-size="14.00">&lt;&lt;Interface&gt;&gt;</text>
<text text-anchor="middle" x="2837" y="-812.1" font-family="Times,serif" font-size="14.00">IShareholderRegistry</text>
<polyline fill="none" stroke="black" points="2615.34,-803.9 3058.66,-803.9 "/>
<text text-anchor="start" x="2623.34" y="-787.3" font-family="Times,serif" font-size="14.00">External:</text>
<text text-anchor="start" x="2623.34" y="-770.5" font-family="Times,serif" font-size="14.00">     SHAREHOLDER_STATUS(): bytes32</text>
<text text-anchor="start" x="2623.34" y="-753.7" font-family="Times,serif" font-size="14.00">     INVESTOR_STATUS(): bytes32</text>
<text text-anchor="start" x="2623.34" y="-736.9" font-family="Times,serif" font-size="14.00">     CONTRIBUTOR_STATUS(): bytes32</text>
<text text-anchor="start" x="2623.34" y="-720.1" font-family="Times,serif" font-size="14.00">     MANAGING_BOARD_STATUS(): bytes32</text>
<text text-anchor="start" x="2623.34" y="-703.3" font-family="Times,serif" font-size="14.00">     getStatus(account: address): bytes32</text>
<text text-anchor="start" x="2623.34" y="-686.5" font-family="Times,serif" font-size="14.00">     getStatusAt(account: address, snapshotId: uint256): bytes32</text>
<text text-anchor="start" x="2623.34" y="-669.7" font-family="Times,serif" font-size="14.00">     isAtLeast(status: bytes32, account: address): bool</text>
<text text-anchor="start" x="2623.34" y="-652.9" font-family="Times,serif" font-size="14.00">     isAtLeastAt(status: bytes32, account: address, snapshotId: uint256): bool</text>
<text text-anchor="start" x="2623.34" y="-636.1" font-family="Times,serif" font-size="14.00">     balanceOfAt(account: address, snapshotId: uint256): uint256</text>
<text text-anchor="start" x="2623.34" y="-619.3" font-family="Times,serif" font-size="14.00">     balanceOf(account: address): uint256</text>
<text text-anchor="start" x="2623.34" y="-602.5" font-family="Times,serif" font-size="14.00">     totalSupplyAt(snapshotId: uint256): uint256</text>
<text text-anchor="start" x="2623.34" y="-585.7" font-family="Times,serif" font-size="14.00">     totalSupply(): uint256</text>
</g>
<!-- 5&#45;&gt;24 -->
<g id="edge6" class="edge">
<title>5-&gt;24</title>
<path fill="none" stroke="black" d="M1229.05,-418.59C1255.21,-439.09 1283.81,-457.01 1314,-469 1347.35,-482.25 2572.92,-463.07 2606,-477 2653.92,-497.17 2697,-532.59 2732.62,-569.84"/>
<polygon fill="black" stroke="black" points="2730.24,-572.42 2739.64,-577.31 2735.34,-567.63 2730.24,-572.42"/>
</g>
<!-- 5&#45;&gt;37 -->
<g id="edge4" class="edge">
<title>5-&gt;37</title>
<path fill="none" stroke="black" d="M875.1,-418.85C861.58,-437.12 849.85,-456.56 841,-477 821.38,-522.29 807.69,-884.78 841,-921.2 911.82,-998.63 1662.75,-1015.75 1884.61,-1019.14"/>
<polygon fill="black" stroke="black" points="1884.72,-1022.64 1894.77,-1019.29 1884.83,-1015.64 1884.72,-1022.64"/>
</g>
<!-- 6 -->
<g id="node4" class="node">
<title>6</title>
<polygon fill="#f2f2f2" stroke="black" points="1322.78,-209.3 1322.78,-292.5 1641.22,-292.5 1641.22,-209.3 1322.78,-209.3"/>
<text text-anchor="middle" x="1482" y="-275.9" font-family="Times,serif" font-size="14.00">InternalMarketBase</text>
<polyline fill="none" stroke="black" points="1322.78,-267.7 1641.22,-267.7 "/>
<text text-anchor="start" x="1330.78" y="-251.1" font-family="Times,serif" font-size="14.00">Public:</text>
<text text-anchor="start" x="1330.78" y="-234.3" font-family="Times,serif" font-size="14.00">    offeredBalanceOf(account: address): uint256</text>
<text text-anchor="start" x="1330.78" y="-217.5" font-family="Times,serif" font-size="14.00">    withdrawableBalanceOf(account: address): uint256</text>
</g>
<!-- 6&#45;&gt;11 -->
<g id="edge7" class="edge">
<title>6-&gt;11</title>
<path fill="none" stroke="black" d="M1452.61,-292.55C1420.03,-336.97 1365.28,-409.7 1314,-469 1257.09,-534.81 1187.29,-606.02 1139,-653.93"/>
<polygon fill="black" stroke="black" points="1136.38,-651.6 1131.74,-661.12 1141.31,-656.57 1136.38,-651.6"/>
</g>
<!-- 6&#45;&gt;24 -->
<g id="edge8" class="edge">
<title>6-&gt;24</title>
<path fill="none" stroke="black" d="M1582.47,-292.58C1717.51,-344.98 1966.25,-433.5 2188,-469 2210.93,-472.67 2584.65,-467.85 2606,-477 2653.66,-497.43 2696.61,-532.81 2732.18,-569.94"/>
<polygon fill="black" stroke="black" points="2729.79,-572.51 2739.2,-577.39 2734.89,-567.71 2729.79,-572.51"/>
</g>
<!-- 10 -->
<g id="node6" class="node">
<title>10</title>
<polygon fill="#f2f2f2" stroke="black" points="102.3,-979.3 102.3,-1062.5 361.7,-1062.5 361.7,-979.3 102.3,-979.3"/>
<text text-anchor="middle" x="232" y="-1045.9" font-family="Times,serif" font-size="14.00">NeokingdomToken</text>
<polyline fill="none" stroke="black" points="102.3,-1037.7 361.7,-1037.7 "/>
<text text-anchor="start" x="110.3" y="-1021.1" font-family="Times,serif" font-size="14.00">Public:</text>
<text text-anchor="start" x="110.3" y="-1004.3" font-family="Times,serif" font-size="14.00">    constructor(name: string, symbol: string)</text>
<text text-anchor="start" x="110.3" y="-987.5" font-family="Times,serif" font-size="14.00">    mint(to: address, amount: uint256)</text>
</g>
<!-- 16 -->
<g id="node8" class="node">
<title>16</title>
<polygon fill="#f2f2f2" stroke="black" points="1333.45,-611.1 1333.45,-811.9 1752.55,-811.9 1752.55,-611.1 1333.45,-611.1"/>
<text text-anchor="middle" x="1543" y="-795.3" font-family="Times,serif" font-size="14.00">RedemptionController</text>
<polyline fill="none" stroke="black" points="1333.45,-787.1 1752.55,-787.1 "/>
<text text-anchor="start" x="1341.45" y="-770.5" font-family="Times,serif" font-size="14.00">External:</text>
<text text-anchor="start" x="1341.45" y="-753.7" font-family="Times,serif" font-size="14.00">    afterMint(to: address, amount: uint256)</text>
<text text-anchor="start" x="1341.45" y="-736.9" font-family="Times,serif" font-size="14.00">    afterOffer(account: address, amount: uint256)</text>
<text text-anchor="start" x="1341.45" y="-720.1" font-family="Times,serif" font-size="14.00">    afterRedeem(account: address, amount: uint256)</text>
<text text-anchor="start" x="1341.45" y="-703.3" font-family="Times,serif" font-size="14.00">    redeemableBalance(account: address): (redeemableAmount: uint256)</text>
<text text-anchor="start" x="1341.45" y="-686.5" font-family="Times,serif" font-size="14.00">Public:</text>
<text text-anchor="start" x="1341.45" y="-669.7" font-family="Times,serif" font-size="14.00">    setRoles(roles: DAORoles)</text>
<text text-anchor="start" x="1341.45" y="-652.9" font-family="Times,serif" font-size="14.00">    getRoles(): DAORoles</text>
<text text-anchor="start" x="1341.45" y="-636.1" font-family="Times,serif" font-size="14.00">    initialize(roles: DAORoles)</text>
<text text-anchor="start" x="1341.45" y="-619.3" font-family="Times,serif" font-size="14.00">    constructor()</text>
</g>
<!-- 16&#45;&gt;37 -->
<g id="edge9" class="edge">
<title>16-&gt;37</title>
<path fill="none" stroke="black" d="M1638,-811.99C1675.67,-848.63 1720.55,-889 1765,-921.2 1802.95,-948.69 1849.41,-973.87 1885.76,-991.92"/>
<polygon fill="black" stroke="black" points="1884.26,-995.08 1894.78,-996.35 1887.35,-988.8 1884.26,-995.08"/>
</g>
<!-- 20 -->
<g id="node9" class="node">
<title>20</title>
<polygon fill="#f2f2f2" stroke="black" points="3066.06,-66.5 3066.06,-435.3 4015.94,-435.3 4015.94,-66.5 3066.06,-66.5"/>
<text text-anchor="middle" x="3541" y="-418.7" font-family="Times,serif" font-size="14.00">ResolutionManager</text>
<polyline fill="none" stroke="black" points="3066.06,-410.5 4015.94,-410.5 "/>
<text text-anchor="start" x="3074.06" y="-393.9" font-family="Times,serif" font-size="14.00">External:</text>
<text text-anchor="start" x="3074.06" y="-377.1" font-family="Times,serif" font-size="14.00">    setShareholderRegistry(shareholderRegistry: IShareholderRegistry)</text>
<text text-anchor="start" x="3074.06" y="-360.3" font-family="Times,serif" font-size="14.00">    setGovernanceToken(governanceToken: IGovernanceToken)</text>
<text text-anchor="start" x="3074.06" y="-343.5" font-family="Times,serif" font-size="14.00">    setVoting(voting: IVoting)</text>
<text text-anchor="start" x="3074.06" y="-326.7" font-family="Times,serif" font-size="14.00">    createResolution(dataURI: string, resolutionTypeId: uint256, isNegative: bool, executionTo: address[], executionData: bytes[]): uint256</text>
<text text-anchor="start" x="3074.06" y="-309.9" font-family="Times,serif" font-size="14.00">    createResolutionWithExclusion(dataURI: string, resolutionTypeId: uint256, executionTo: address[], executionData: bytes[], excludedContributor: address): uint256</text>
<text text-anchor="start" x="3074.06" y="-293.1" font-family="Times,serif" font-size="14.00">    approveResolution(resolutionId: uint256)</text>
<text text-anchor="start" x="3074.06" y="-276.3" font-family="Times,serif" font-size="14.00">    rejectResolution(resolutionId: uint256)</text>
<text text-anchor="start" x="3074.06" y="-259.5" font-family="Times,serif" font-size="14.00">    updateResolution(resolutionId: uint256, dataURI: string, resolutionTypeId: uint256, isNegative: bool, executionTo: address[], executionData: bytes[])</text>
<text text-anchor="start" x="3074.06" y="-242.7" font-family="Times,serif" font-size="14.00">    executeResolution(resolutionId: uint256)</text>
<text text-anchor="start" x="3074.06" y="-225.9" font-family="Times,serif" font-size="14.00">    vote(resolutionId: uint256, isYes: bool)</text>
<text text-anchor="start" x="3074.06" y="-209.1" font-family="Times,serif" font-size="14.00">Public:</text>
<text text-anchor="start" x="3074.06" y="-192.3" font-family="Times,serif" font-size="14.00">    getExecutionDetails(resolutionId: uint256): (address[], bytes[])</text>
<text text-anchor="start" x="3074.06" y="-175.5" font-family="Times,serif" font-size="14.00">    getVoterVote(resolutionId: uint256, voter: address): (isYes: bool, hasVoted: bool, votingPower: uint256)</text>
<text text-anchor="start" x="3074.06" y="-158.7" font-family="Times,serif" font-size="14.00">    getResolutionResult(resolutionId: uint256): bool</text>
<text text-anchor="start" x="3074.06" y="-141.9" font-family="Times,serif" font-size="14.00">    setRoles(roles: DAORoles)</text>
<text text-anchor="start" x="3074.06" y="-125.1" font-family="Times,serif" font-size="14.00">    getRoles(): DAORoles</text>
<text text-anchor="start" x="3074.06" y="-108.3" font-family="Times,serif" font-size="14.00">    initialize(roles: DAORoles, shareholderRegistry: IShareholderRegistry, governanceToken: IGovernanceToken, voting: IVoting)</text>
<text text-anchor="start" x="3074.06" y="-91.5" font-family="Times,serif" font-size="14.00">    constructor()</text>
<text text-anchor="start" x="3074.06" y="-74.7" font-family="Times,serif" font-size="14.00">    addResolutionType(name: string, quorum: uint256, noticePeriod: uint256, votingPeriod: uint256, canBeNegative: bool)</text>
</g>
<!-- 20&#45;&gt;24 -->
<g id="edge10" class="edge">
<title>20-&gt;24</title>
<path fill="none" stroke="black" d="M3259.22,-435.46C3189.39,-480.95 3115.71,-528.94 3049.79,-571.88"/>
<polygon fill="black" stroke="black" points="3047.85,-568.97 3041.38,-577.36 3051.67,-574.84 3047.85,-568.97"/>
</g>
<!-- 20&#45;&gt;37 -->
<g id="edge11" class="edge">
<title>20-&gt;37</title>
<path fill="none" stroke="black" d="M3481.41,-435.51C3419.83,-593.09 3307.29,-811.61 3129,-921.2 3032.92,-980.26 2236.29,-1010.48 2007.33,-1018"/>
<polygon fill="black" stroke="black" points="2007.06,-1014.51 1997.18,-1018.33 2007.28,-1021.5 2007.06,-1014.51"/>
</g>
<!-- 25 -->
<g id="node11" class="node">
<title>25</title>
<polygon fill="#f2f2f2" stroke="black" points="2102.68,-510.3 2102.68,-912.7 2597.32,-912.7 2597.32,-510.3 2102.68,-510.3"/>
<text text-anchor="middle" x="2350" y="-896.1" font-family="Times,serif" font-size="14.00">ShareholderRegistry</text>
<polyline fill="none" stroke="black" points="2102.68,-887.9 2597.32,-887.9 "/>
<text text-anchor="start" x="2110.68" y="-871.3" font-family="Times,serif" font-size="14.00">External:</text>
<text text-anchor="start" x="2110.68" y="-854.5" font-family="Times,serif" font-size="14.00">    setVoting(voting: IVoting)</text>
<text text-anchor="start" x="2110.68" y="-837.7" font-family="Times,serif" font-size="14.00">    burn(account: address, amount: uint256)</text>
<text text-anchor="start" x="2110.68" y="-820.9" font-family="Times,serif" font-size="14.00">Public:</text>
<text text-anchor="start" x="2110.68" y="-804.1" font-family="Times,serif" font-size="14.00">    getStatus(account: address): bytes32</text>
<text text-anchor="start" x="2110.68" y="-787.3" font-family="Times,serif" font-size="14.00">    isAtLeast(status: bytes32, account: address): bool</text>
<text text-anchor="start" x="2110.68" y="-770.5" font-family="Times,serif" font-size="14.00">    snapshot(): uint256</text>
<text text-anchor="start" x="2110.68" y="-753.7" font-family="Times,serif" font-size="14.00">    getCurrentSnapshotId(): uint256</text>
<text text-anchor="start" x="2110.68" y="-736.9" font-family="Times,serif" font-size="14.00">    totalSupplyAt(snapshotId: uint256): uint256</text>
<text text-anchor="start" x="2110.68" y="-720.1" font-family="Times,serif" font-size="14.00">    balanceOfAt(account: address, snapshotId: uint256): (balance: uint256)</text>
<text text-anchor="start" x="2110.68" y="-703.3" font-family="Times,serif" font-size="14.00">    getStatusAt(account: address, snapshotId: uint256): (status: bytes32)</text>
<text text-anchor="start" x="2110.68" y="-686.5" font-family="Times,serif" font-size="14.00">    getBalanceAndStatusAt(account: address, snapshotId: uint256): (uint256, bytes32)</text>
<text text-anchor="start" x="2110.68" y="-669.7" font-family="Times,serif" font-size="14.00">    isAtLeastAt(status: bytes32, account: address, snapshotId: uint256): bool</text>
<text text-anchor="start" x="2110.68" y="-652.9" font-family="Times,serif" font-size="14.00">    setRoles(roles: DAORoles)</text>
<text text-anchor="start" x="2110.68" y="-636.1" font-family="Times,serif" font-size="14.00">    getRoles(): DAORoles</text>
<text text-anchor="start" x="2110.68" y="-619.3" font-family="Times,serif" font-size="14.00">    initialize(roles: DAORoles, name: string, symbol: string)</text>
<text text-anchor="start" x="2110.68" y="-602.5" font-family="Times,serif" font-size="14.00">    constructor()</text>
<text text-anchor="start" x="2110.68" y="-585.7" font-family="Times,serif" font-size="14.00">    setStatus(status: bytes32, account: address)</text>
<text text-anchor="start" x="2110.68" y="-568.9" font-family="Times,serif" font-size="14.00">    mint(account: address, amount: uint256)</text>
<text text-anchor="start" x="2110.68" y="-552.1" font-family="Times,serif" font-size="14.00">    batchTransferFromDAO(recipients: address[])</text>
<text text-anchor="start" x="2110.68" y="-535.3" font-family="Times,serif" font-size="14.00">    transferFrom(from: address, to: address, amount: uint256): bool</text>
<text text-anchor="start" x="2110.68" y="-518.5" font-family="Times,serif" font-size="14.00">    transfer(to: address, amount: uint256): bool</text>
</g>
<!-- 25&#45;&gt;37 -->
<g id="edge12" class="edge">
<title>25-&gt;37</title>
<path fill="none" stroke="black" d="M2105.12,-912.93C2101.4,-915.72 2097.69,-918.47 2094,-921.2 2065.64,-942.14 2033.15,-964.03 2005.84,-981.86"/>
<polygon fill="black" stroke="black" points="2003.65,-979.11 1997.17,-987.5 2007.47,-984.98 2003.65,-979.11"/>
</g>
<!-- 26 -->
<g id="node12" class="node">
<title>26</title>
<polygon fill="#f2f2f2" stroke="black" points="1777,-669.9 1777,-753.1 2085,-753.1 2085,-669.9 1777,-669.9"/>
<text text-anchor="middle" x="1931" y="-736.5" font-family="Times,serif" font-size="14.00">ShareholderRegistryBase</text>
<polyline fill="none" stroke="black" points="1777,-728.3 2085,-728.3 "/>
<text text-anchor="start" x="1785" y="-711.7" font-family="Times,serif" font-size="14.00">Public:</text>
<text text-anchor="start" x="1785" y="-694.9" font-family="Times,serif" font-size="14.00">    getStatus(account: address): bytes32</text>
<text text-anchor="start" x="1785" y="-678.1" font-family="Times,serif" font-size="14.00">    isAtLeast(status: bytes32, account: address): bool</text>
</g>
<!-- 32 -->
<g id="node13" class="node">
<title>32</title>
<polygon fill="#f2f2f2" stroke="black" points="2632.08,-41.3 2632.08,-460.5 3041.92,-460.5 3041.92,-41.3 2632.08,-41.3"/>
<text text-anchor="middle" x="2837" y="-443.9" font-family="Times,serif" font-size="14.00">Voting</text>
<polyline fill="none" stroke="black" points="2632.08,-435.7 3041.92,-435.7 "/>
<text text-anchor="start" x="2640.08" y="-419.1" font-family="Times,serif" font-size="14.00">External:</text>
<text text-anchor="start" x="2640.08" y="-402.3" font-family="Times,serif" font-size="14.00">    beforeRemoveContributor(account: address)</text>
<text text-anchor="start" x="2640.08" y="-385.5" font-family="Times,serif" font-size="14.00">    afterAddContributor(account: address)</text>
<text text-anchor="start" x="2640.08" y="-368.7" font-family="Times,serif" font-size="14.00">    afterTokenTransfer(from: address, to: address, amount: uint256)</text>
<text text-anchor="start" x="2640.08" y="-351.9" font-family="Times,serif" font-size="14.00">    setToken(token: IERC20Upgradeable)</text>
<text text-anchor="start" x="2640.08" y="-335.1" font-family="Times,serif" font-size="14.00">    setShareholderRegistry(shareholderRegistry: IShareholderRegistry)</text>
<text text-anchor="start" x="2640.08" y="-318.3" font-family="Times,serif" font-size="14.00">Public:</text>
<text text-anchor="start" x="2640.08" y="-301.5" font-family="Times,serif" font-size="14.00">    snapshot(): uint256</text>
<text text-anchor="start" x="2640.08" y="-284.7" font-family="Times,serif" font-size="14.00">    getDelegate(account: address): address</text>
<text text-anchor="start" x="2640.08" y="-267.9" font-family="Times,serif" font-size="14.00">    getDelegateAt(account: address, snapshotId: uint256): address</text>
<text text-anchor="start" x="2640.08" y="-251.1" font-family="Times,serif" font-size="14.00">    canVote(account: address): bool</text>
<text text-anchor="start" x="2640.08" y="-234.3" font-family="Times,serif" font-size="14.00">    canVoteAt(account: address, snapshotId: uint256): bool</text>
<text text-anchor="start" x="2640.08" y="-217.5" font-family="Times,serif" font-size="14.00">    getVotingPower(account: address): uint256</text>
<text text-anchor="start" x="2640.08" y="-200.7" font-family="Times,serif" font-size="14.00">    getVotingPowerAt(account: address, snapshotId: uint256): uint256</text>
<text text-anchor="start" x="2640.08" y="-183.9" font-family="Times,serif" font-size="14.00">    getTotalVotingPower(): uint256</text>
<text text-anchor="start" x="2640.08" y="-167.1" font-family="Times,serif" font-size="14.00">    getTotalVotingPowerAt(snapshotId: uint256): uint256</text>
<text text-anchor="start" x="2640.08" y="-150.3" font-family="Times,serif" font-size="14.00">    delegate(newDelegate: address)</text>
<text text-anchor="start" x="2640.08" y="-133.5" font-family="Times,serif" font-size="14.00">    delegateFrom(delegator: address, newDelegate: address)</text>
<text text-anchor="start" x="2640.08" y="-116.7" font-family="Times,serif" font-size="14.00">    getCurrentSnapshotId(): uint256</text>
<text text-anchor="start" x="2640.08" y="-99.9" font-family="Times,serif" font-size="14.00">    setRoles(roles: DAORoles)</text>
<text text-anchor="start" x="2640.08" y="-83.1" font-family="Times,serif" font-size="14.00">    getRoles(): DAORoles</text>
<text text-anchor="start" x="2640.08" y="-66.3" font-family="Times,serif" font-size="14.00">    initialize(roles: DAORoles)</text>
<text text-anchor="start" x="2640.08" y="-49.5" font-family="Times,serif" font-size="14.00">    constructor()</text>
</g>
<!-- 32&#45;&gt;24 -->
<g id="edge13" class="edge">
<title>32-&gt;24</title>
<path fill="none" stroke="black" d="M2837,-460.74C2837,-496.62 2837,-533.19 2837,-566.87"/>
<polygon fill="black" stroke="black" points="2833.5,-567.22 2837,-577.22 2840.5,-567.22 2833.5,-567.22"/>
</g>
<!-- 32&#45;&gt;37 -->
<g id="edge14" class="edge">
<title>32-&gt;37</title>
<path fill="none" stroke="black" d="M3041.93,-460.27C3045.94,-463.25 3049.97,-466.17 3054,-469 3060.83,-473.8 3066.53,-469.95 3071,-477 3176.78,-643.69 3204.36,-775.63 3071,-921.2 2998.77,-1000.05 2232.63,-1016.19 2007.73,-1019.24"/>
<polygon fill="black" stroke="black" points="2007.39,-1015.74 1997.44,-1019.37 2007.48,-1022.74 2007.39,-1015.74"/>
</g>
<!-- 33 -->
<g id="node14" class="node">
<title>33</title>
<polygon fill="#f2f2f2" stroke="black" points="2200.33,-83.3 2200.33,-418.5 2613.67,-418.5 2613.67,-83.3 2200.33,-83.3"/>
<text text-anchor="middle" x="2407" y="-401.9" font-family="Times,serif" font-size="14.00">VotingBase</text>
<polyline fill="none" stroke="black" points="2200.33,-393.7 2613.67,-393.7 "/>
<text text-anchor="start" x="2208.33" y="-377.1" font-family="Times,serif" font-size="14.00">External:</text>
<text text-anchor="start" x="2208.33" y="-360.3" font-family="Times,serif" font-size="14.00">     snapshot(): uint256</text>
<text text-anchor="start" x="2208.33" y="-343.5" font-family="Times,serif" font-size="14.00">     beforeRemoveContributor(account: address)</text>
<text text-anchor="start" x="2208.33" y="-326.7" font-family="Times,serif" font-size="14.00">     afterAddContributor(account: address)</text>
<text text-anchor="start" x="2208.33" y="-309.9" font-family="Times,serif" font-size="14.00">     afterTokenTransfer(from: address, to: address, amount: uint256)</text>
<text text-anchor="start" x="2208.33" y="-293.1" font-family="Times,serif" font-size="14.00">     getDelegateAt(account: address, snapshotId: uint256): address</text>
<text text-anchor="start" x="2208.33" y="-276.3" font-family="Times,serif" font-size="14.00">     canVoteAt(account: address, snapshotId: uint256): bool</text>
<text text-anchor="start" x="2208.33" y="-259.5" font-family="Times,serif" font-size="14.00">     getVotingPowerAt(account: address, snapshotId: uint256): uint256</text>
<text text-anchor="start" x="2208.33" y="-242.7" font-family="Times,serif" font-size="14.00">     getTotalVotingPowerAt(snapshotId: uint256): uint256</text>
<text text-anchor="start" x="2208.33" y="-225.9" font-family="Times,serif" font-size="14.00">     delegate(newDelegate: address)</text>
<text text-anchor="start" x="2208.33" y="-209.1" font-family="Times,serif" font-size="14.00">     delegateFrom(delegator: address, newDelegate: address)</text>
<text text-anchor="start" x="2208.33" y="-192.3" font-family="Times,serif" font-size="14.00">     setToken(token: IERC20Upgradeable)</text>
<text text-anchor="start" x="2208.33" y="-175.5" font-family="Times,serif" font-size="14.00">     setShareholderRegistry(shareholderRegistry: IShareholderRegistry)</text>
<text text-anchor="start" x="2208.33" y="-158.7" font-family="Times,serif" font-size="14.00">Public:</text>
<text text-anchor="start" x="2208.33" y="-141.9" font-family="Times,serif" font-size="14.00">    getDelegate(account: address): address</text>
<text text-anchor="start" x="2208.33" y="-125.1" font-family="Times,serif" font-size="14.00">    canVote(account: address): bool</text>
<text text-anchor="start" x="2208.33" y="-108.3" font-family="Times,serif" font-size="14.00">    getVotingPower(account: address): uint256</text>
<text text-anchor="start" x="2208.33" y="-91.5" font-family="Times,serif" font-size="14.00">    getTotalVotingPower(): uint256</text>
</g>
<!-- 33&#45;&gt;24 -->
<g id="edge15" class="edge">
<title>33-&gt;24</title>
<path fill="none" stroke="black" d="M2563.46,-418.76C2609.94,-468.33 2660.37,-522.12 2705.12,-569.85"/>
<polygon fill="black" stroke="black" points="2702.58,-572.25 2711.97,-577.15 2707.68,-567.46 2702.58,-572.25"/>
</g>
</g>
</svg>