<?xml version="1.0" encoding="UTF-8" standalone="no"?>
<!DOCTYPE svg PUBLIC "-//W3C//DTD SVG 1.1//EN" "http://www.w3.org/Graphics/SVG/1.1/DTD/svg11.dtd">
<!-- Generated by graphviz version 5.0.0 (20220707.1540)
 -->
<!-- Title: UmlClassDiagram Pages: 1 -->
<svg width="1354pt" height="285pt" viewBox="0.00 0.00 1354.00 284.60" xmlns="http://www.w3.org/2000/svg" xmlns:xlink="http://www.w3.org/1999/xlink">
<g id="graph0" class="graph" transform="scale(1 1) rotate(0) translate(4 280.6)">
<title>UmlClassDiagram</title>
<polygon fill="white" stroke="transparent" points="-4,4 -4,-280.6 1350,-280.6 1350,4 -4,4"/>
<g id="clust1" class="cluster">
<title>cluster_0</title>
<polygon fill="white" stroke="black" points="8,-96.6 8,-174.4 308,-174.4 308,-96.6 8,-96.6"/>
<text text-anchor="middle" x="158" y="-104.8" font-family="Times,serif" font-size="14.00">contracts/GovernanceToken</text>
</g>
<g id="clust2" class="cluster">
<title>cluster_1</title>
<polygon fill="white" stroke="black" points="367,-8 367,-85.8 629,-85.8 629,-8 367,-8"/>
<text text-anchor="middle" x="498" y="-16.2" font-family="Times,serif" font-size="14.00">contracts/InternalMarket</text>
</g>
<g id="clust3" class="cluster">
<title>cluster_2</title>
<polygon fill="white" stroke="black" points="17,-185.2 17,-268.6 305,-268.6 305,-185.2 17,-185.2"/>
<text text-anchor="middle" x="161" y="-193.4" font-family="Times,serif" font-size="14.00">contracts/NeokingdomToken</text>
</g>
<g id="clust4" class="cluster">
<title>cluster_3</title>
<polygon fill="white" stroke="black" points="346,-93.8 346,-177.2 482,-177.2 482,-93.8 346,-93.8"/>
<text text-anchor="middle" x="414" y="-102" font-family="Times,serif" font-size="14.00">contracts/PriceOracle</text>
</g>
<g id="clust5" class="cluster">
<title>cluster_4</title>
<polygon fill="white" stroke="black" points="490,-96.6 490,-174.4 686,-174.4 686,-96.6 490,-96.6"/>
<text text-anchor="middle" x="588" y="-104.8" font-family="Times,serif" font-size="14.00">contracts/RedemptionController</text>
</g>
<g id="clust6" class="cluster">
<title>cluster_5</title>
<polygon fill="white" stroke="black" points="1158,-8 1158,-85.8 1338,-85.8 1338,-8 1158,-8"/>
<text text-anchor="middle" x="1248" y="-16.2" font-family="Times,serif" font-size="14.00">contracts/ResolutionManager</text>
</g>
<g id="clust7" class="cluster">
<title>cluster_6</title>
<polygon fill="white" stroke="black" points="694,-93.8 694,-177.2 1171,-177.2 1171,-93.8 694,-93.8"/>
<text text-anchor="middle" x="932.5" y="-102" font-family="Times,serif" font-size="14.00">contracts/ShareholderRegistry</text>
</g>
<g id="clust8" class="cluster">
<title>cluster_7</title>
<polygon fill="white" stroke="black" points="980,-8 980,-85.8 1150,-85.8 1150,-8 980,-8"/>
<text text-anchor="middle" x="1065" y="-16.2" font-family="Times,serif" font-size="14.00">contracts/Voting</text>
</g>
<g id="clust9" class="cluster">
<title>cluster_8</title>
<polygon fill="white" stroke="black" points="711,-188 711,-265.8 840,-265.8 840,-188 711,-188"/>
<text text-anchor="middle" x="775.5" y="-196.2" font-family="Times,serif" font-size="14.00">contracts/extensions</text>
</g>
<!-- 0 -->
<g id="node1" class="node">
<title>0</title>
<polygon fill="#f2f2f2" stroke="black" points="180.3,-129.9 180.3,-165.9 299.7,-165.9 299.7,-129.9 180.3,-129.9"/>
<text text-anchor="middle" x="240" y="-143.8" font-family="Times,serif" font-size="14.00">GovernanceToken</text>
</g>
<!-- 9 -->
<g id="node5" class="node">
<title>9</title>
<polygon fill="#f2f2f2" stroke="black" points="167.23,-218.5 167.23,-260.1 296.77,-260.1 296.77,-218.5 167.23,-218.5"/>
<text text-anchor="middle" x="232" y="-243.5" font-family="Times,serif" font-size="14.00">&lt;&lt;Interface&gt;&gt;</text>
<text text-anchor="middle" x="232" y="-226.7" font-family="Times,serif" font-size="14.00">INeokingdomToken</text>
</g>
<!-- 0&#45;&gt;9 -->
<g id="edge2" class="edge">
<title>0-&gt;9</title>
<path fill="none" stroke="black" d="M238.46,-166.14C237.39,-178.02 235.95,-194.14 234.7,-208.13"/>
<polygon fill="black" stroke="black" points="231.19,-208.03 233.79,-218.31 238.17,-208.66 231.19,-208.03"/>
</g>
<!-- 37 -->
<g id="node15" class="node">
<title>37</title>
<polygon fill="#f2f2f2" stroke="black" points="735.89,-221.3 735.89,-257.3 814.11,-257.3 814.11,-221.3 735.89,-221.3"/>
<text text-anchor="middle" x="775" y="-235.2" font-family="Times,serif" font-size="14.00">DAORoles</text>
</g>
<!-- 0&#45;&gt;37 -->
<g id="edge1" class="edge">
<title>0-&gt;37</title>
<path fill="none" stroke="black" d="M279.39,-165.92C290.42,-170.14 302.53,-174.29 314,-177.2 461.05,-214.52 640.61,-229.97 725.72,-235.55"/>
<polygon fill="black" stroke="black" points="725.67,-239.06 735.87,-236.2 726.11,-232.07 725.67,-239.06"/>
</g>
<!-- 1 -->
<g id="node2" class="node">
<title>1</title>
<polygon fill="#f2f2f2" stroke="black" points="15.7,-129.9 15.7,-165.9 162.3,-165.9 162.3,-129.9 15.7,-129.9"/>
<text text-anchor="middle" x="89" y="-143.8" font-family="Times,serif" font-size="14.00">GovernanceTokenBase</text>
</g>
<!-- 1&#45;&gt;9 -->
<g id="edge3" class="edge">
<title>1-&gt;9</title>
<path fill="none" stroke="black" d="M123.92,-166.08C135,-171.84 147.18,-178.51 158,-185.2 171.44,-193.51 185.67,-203.42 198.02,-212.42"/>
<polygon fill="black" stroke="black" points="196.11,-215.36 206.23,-218.47 200.26,-209.72 196.11,-215.36"/>
</g>
<!-- 5 -->
<g id="node3" class="node">
<title>5</title>
<polygon fill="#f2f2f2" stroke="black" points="375.02,-41.3 375.02,-77.3 474.98,-77.3 474.98,-41.3 375.02,-41.3"/>
<text text-anchor="middle" x="425" y="-55.2" font-family="Times,serif" font-size="14.00">InternalMarket</text>
</g>
<!-- 11 -->
<g id="node7" class="node">
<title>11</title>
<polygon fill="#f2f2f2" stroke="black" points="376.34,-127.1 376.34,-168.7 473.66,-168.7 473.66,-127.1 376.34,-127.1"/>
<text text-anchor="middle" x="425" y="-152.1" font-family="Times,serif" font-size="14.00">&lt;&lt;Interface&gt;&gt;</text>
<text text-anchor="middle" x="425" y="-135.3" font-family="Times,serif" font-size="14.00">IStdReference</text>
</g>
<!-- 5&#45;&gt;11 -->
<g id="edge5" class="edge">
<title>5-&gt;11</title>
<path fill="none" stroke="black" d="M425,-77.41C425,-88.69 425,-103.77 425,-116.99"/>
<polygon fill="black" stroke="black" points="421.5,-117.1 425,-127.1 428.5,-117.1 421.5,-117.1"/>
</g>
<!-- 24 -->
<g id="node10" class="node">
<title>24</title>
<polygon fill="#f2f2f2" stroke="black" points="1027.13,-127.1 1027.13,-168.7 1162.87,-168.7 1162.87,-127.1 1027.13,-127.1"/>
<text text-anchor="middle" x="1095" y="-152.1" font-family="Times,serif" font-size="14.00">&lt;&lt;Interface&gt;&gt;</text>
<text text-anchor="middle" x="1095" y="-135.3" font-family="Times,serif" font-size="14.00">IShareholderRegistry</text>
</g>
<!-- 5&#45;&gt;24 -->
<g id="edge6" class="edge">
<title>5-&gt;24</title>
<path fill="none" stroke="black" d="M458.25,-77.36C466.46,-80.81 475.38,-83.95 484,-85.8 542.13,-98.28 962.43,-75.53 1019,-93.8 1036.12,-99.33 1052.79,-110.16 1066.12,-120.6"/>
<polygon fill="black" stroke="black" points="1064.01,-123.39 1073.97,-127 1068.44,-117.97 1064.01,-123.39"/>
</g>
<!-- 5&#45;&gt;37 -->
<g id="edge4" class="edge">
<title>5-&gt;37</title>
<path fill="none" stroke="black" d="M375,-69.83C362.12,-74.79 349.74,-82.34 342,-93.8 321.27,-124.53 317.69,-149.22 342,-177.2 391.22,-233.85 622.68,-239.44 725.53,-239.05"/>
<polygon fill="black" stroke="black" points="725.68,-242.55 735.66,-238.99 725.64,-235.55 725.68,-242.55"/>
</g>
<!-- 6 -->
<g id="node4" class="node">
<title>6</title>
<polygon fill="#f2f2f2" stroke="black" points="493.41,-41.3 493.41,-77.3 620.59,-77.3 620.59,-41.3 493.41,-41.3"/>
<text text-anchor="middle" x="557" y="-55.2" font-family="Times,serif" font-size="14.00">InternalMarketBase</text>
</g>
<!-- 6&#45;&gt;11 -->
<g id="edge7" class="edge">
<title>6-&gt;11</title>
<path fill="none" stroke="black" d="M515.78,-77.4C505.75,-82.19 495.24,-87.76 486,-93.8 474.41,-101.37 462.69,-110.99 452.67,-119.96"/>
<polygon fill="black" stroke="black" points="450.04,-117.62 445.03,-126.96 454.77,-122.78 450.04,-117.62"/>
</g>
<!-- 6&#45;&gt;24 -->
<g id="edge8" class="edge">
<title>6-&gt;24</title>
<path fill="none" stroke="black" d="M620.98,-63.05C739.05,-68.4 982.48,-80.84 1019,-93.8 1035.71,-99.73 1052.11,-110.39 1065.37,-120.61"/>
<polygon fill="black" stroke="black" points="1063.2,-123.35 1073.2,-126.86 1067.57,-117.89 1063.2,-123.35"/>
</g>
<!-- 10 -->
<g id="node6" class="node">
<title>10</title>
<polygon fill="#f2f2f2" stroke="black" points="24.57,-221.3 24.57,-257.3 149.43,-257.3 149.43,-221.3 24.57,-221.3"/>
<text text-anchor="middle" x="87" y="-235.2" font-family="Times,serif" font-size="14.00">NeokingdomToken</text>
</g>
<!-- 16 -->
<g id="node8" class="node">
<title>16</title>
<polygon fill="#f2f2f2" stroke="black" points="536.01,-129.9 536.01,-165.9 677.99,-165.9 677.99,-129.9 536.01,-129.9"/>
<text text-anchor="middle" x="607" y="-143.8" font-family="Times,serif" font-size="14.00">RedemptionController</text>
</g>
<!-- 16&#45;&gt;37 -->
<g id="edge9" class="edge">
<title>16-&gt;37</title>
<path fill="none" stroke="black" d="M638.99,-165.93C665.88,-180.23 704.49,-200.78 733.71,-216.33"/>
<polygon fill="black" stroke="black" points="732.37,-219.58 742.84,-221.19 735.65,-213.4 732.37,-219.58"/>
</g>
<!-- 20 -->
<g id="node9" class="node">
<title>20</title>
<polygon fill="#f2f2f2" stroke="black" points="1165.79,-41.3 1165.79,-77.3 1292.21,-77.3 1292.21,-41.3 1165.79,-41.3"/>
<text text-anchor="middle" x="1229" y="-55.2" font-family="Times,serif" font-size="14.00">ResolutionManager</text>
</g>
<!-- 20&#45;&gt;24 -->
<g id="edge10" class="edge">
<title>20-&gt;24</title>
<path fill="none" stroke="black" d="M1202.53,-77.41C1183,-90.03 1156.12,-107.4 1134.11,-121.62"/>
<polygon fill="black" stroke="black" points="1132.14,-118.73 1125.64,-127.1 1135.94,-124.61 1132.14,-118.73"/>
</g>
<!-- 20&#45;&gt;37 -->
<g id="edge11" class="edge">
<title>20-&gt;37</title>
<path fill="none" stroke="black" d="M1229.72,-77.6C1229.76,-103.45 1225.7,-151.84 1197,-177.2 1142.55,-225.31 923.47,-235.57 824.26,-237.73"/>
<polygon fill="black" stroke="black" points="824.12,-234.23 814.19,-237.93 824.26,-241.23 824.12,-234.23"/>
</g>
<!-- 25 -->
<g id="node11" class="node">
<title>25</title>
<polygon fill="#f2f2f2" stroke="black" points="878.46,-129.9 878.46,-165.9 1009.54,-165.9 1009.54,-129.9 878.46,-129.9"/>
<text text-anchor="middle" x="944" y="-143.8" font-family="Times,serif" font-size="14.00">ShareholderRegistry</text>
</g>
<!-- 25&#45;&gt;37 -->
<g id="edge12" class="edge">
<title>25-&gt;37</title>
<path fill="none" stroke="black" d="M911.81,-165.93C884.77,-180.23 845.93,-200.78 816.54,-216.33"/>
<polygon fill="black" stroke="black" points="814.56,-213.42 807.35,-221.19 817.83,-219.6 814.56,-213.42"/>
</g>
<!-- 26 -->
<g id="node12" class="node">
<title>26</title>
<polygon fill="#f2f2f2" stroke="black" points="701.85,-129.9 701.85,-165.9 860.15,-165.9 860.15,-129.9 701.85,-129.9"/>
<text text-anchor="middle" x="781" y="-143.8" font-family="Times,serif" font-size="14.00">ShareholderRegistryBase</text>
</g>
<!-- 32 -->
<g id="node13" class="node">
<title>32</title>
<polygon fill="#f2f2f2" stroke="black" points="1087.56,-41.3 1087.56,-77.3 1142.44,-77.3 1142.44,-41.3 1087.56,-41.3"/>
<text text-anchor="middle" x="1115" y="-55.2" font-family="Times,serif" font-size="14.00">Voting</text>
</g>
<!-- 32&#45;&gt;24 -->
<g id="edge13" class="edge">
<title>32-&gt;24</title>
<path fill="none" stroke="black" d="M1111.05,-77.41C1108.44,-88.69 1104.96,-103.77 1101.91,-116.99"/>
<polygon fill="black" stroke="black" points="1098.41,-116.57 1099.57,-127.1 1105.23,-118.14 1098.41,-116.57"/>
</g>
<!-- 32&#45;&gt;37 -->
<g id="edge14" class="edge">
<title>32-&gt;37</title>
<path fill="none" stroke="black" d="M1139.28,-77.32C1144.05,-80.33 1149.1,-83.3 1154,-85.8 1162.9,-90.34 1169.33,-85.58 1175,-93.8 1196.03,-124.32 1199.15,-149.08 1175,-177.2 1130.34,-229.2 921.35,-237.43 824.5,-238.4"/>
<polygon fill="black" stroke="black" points="824.35,-234.9 814.37,-238.48 824.4,-241.9 824.35,-234.9"/>
</g>
<!-- 33 -->
<g id="node14" class="node">
<title>33</title>
<polygon fill="#f2f2f2" stroke="black" points="987.95,-41.3 987.95,-77.3 1070.05,-77.3 1070.05,-41.3 987.95,-41.3"/>
<text text-anchor="middle" x="1029" y="-55.2" font-family="Times,serif" font-size="14.00">VotingBase</text>
</g>
<!-- 33&#45;&gt;24 -->
<g id="edge15" class="edge">
<title>33-&gt;24</title>
<path fill="none" stroke="black" d="M1042.04,-77.41C1051.06,-89.25 1063.27,-105.27 1073.69,-118.94"/>
<polygon fill="black" stroke="black" points="1071.06,-121.27 1079.91,-127.1 1076.63,-117.02 1071.06,-121.27"/>
</g>
</g>
</svg>